<svg width="131" height="133" viewBox="0 0 131 133" fill="none" xmlns="http://www.w3.org/2000/svg">
	<path
		d="M10.2884 41.471L19.097 50.1692L18.5651 51.4555L6.1858 51.3922L6.65965 50.2463C6.71263 50.1182 6.78747 50.0279 6.88415 49.9755C6.98083 49.9232 7.08661 49.8977 7.20148 49.899L15.9107 50.003C16.1048 50.0082 16.3126 50.022 16.5342 50.0444C16.7579 50.0618 16.9883 50.0907 17.2255 50.1311C17.0291 49.9922 16.8435 49.8548 16.6687 49.7191C16.494 49.5833 16.3361 49.4488 16.195 49.3154L9.95284 43.2454C9.88129 43.1812 9.82833 43.0929 9.79398 42.9806C9.75674 42.8613 9.76359 42.7401 9.81454 42.6169L10.2884 41.471Z"
		fill="#3D5361" />
	<path
		d="M26.6412 29.1326C27.2887 29.6965 27.7947 30.3174 28.1591 30.9953C28.5195 31.6697 28.7319 32.3639 28.7963 33.0776C28.8608 33.7914 28.7722 34.5063 28.5306 35.2224C28.2885 35.9309 27.8908 36.6029 27.3374 37.2384C26.7841 37.874 26.1731 38.3603 25.5047 38.6976C24.8322 39.0314 24.138 39.2155 23.4221 39.2498C22.7063 39.2842 21.9895 39.1692 21.2719 38.9051C20.5503 38.6374 19.8657 38.2216 19.2181 37.6578C18.5705 37.0939 18.0666 36.4748 17.7062 35.8003C17.3418 35.1224 17.1274 34.4265 17.0629 33.7127C16.9945 32.9954 17.0793 32.2808 17.3174 31.5688C17.5555 30.8567 17.9512 30.183 18.5045 29.5475C19.0579 28.9119 19.6708 28.4273 20.3433 28.0935C21.0193 27.7557 21.7173 27.5714 22.4372 27.5406C23.153 27.5062 23.8718 27.6229 24.5934 27.8905C25.311 28.1547 25.9936 28.5687 26.6412 29.1326ZM25.5957 30.3332C25.0648 29.8709 24.5251 29.5283 23.9767 29.3054C23.4283 29.0824 22.8937 28.9776 22.3729 28.9909C21.8482 29.0007 21.3427 29.1264 20.8567 29.3679C20.3706 29.6094 19.9244 29.9634 19.5181 30.43C19.1154 30.8926 18.8278 31.3812 18.6555 31.8959C18.4831 32.4106 18.4265 32.9305 18.4854 33.4557C18.5439 33.9733 18.7212 34.4884 19.0175 35.0009C19.3137 35.5134 19.7273 36.0009 20.2583 36.4632C20.7892 36.9255 21.3289 37.2681 21.8773 37.491C22.4217 37.7105 22.9563 37.8153 23.4811 37.8055C24.0053 37.7881 24.5105 37.6587 24.9966 37.4172C25.4786 37.1722 25.9211 36.8184 26.3238 36.3559C26.7301 35.8893 27.0214 35.4004 27.1978 34.8892C27.3701 34.3745 27.427 33.8584 27.3686 33.3408C27.3061 32.8196 27.1288 32.3045 26.8365 31.7955C26.5403 31.283 26.1267 30.7955 25.5957 30.3332Z"
		fill="#3D5361" />
	<path d="M37.688 28.0598L36.396 28.9198L30.0434 19.3769L31.3353 18.5169L37.688 28.0598Z" fill="#3D5361" />
	<path
		d="M45.4818 17.5604C45.9043 17.4113 46.2587 17.2296 46.5451 17.0154C46.8347 16.7944 47.0548 16.5527 47.2053 16.2903C47.3592 16.021 47.4453 15.7361 47.4636 15.4356C47.4819 15.135 47.4352 14.8263 47.3233 14.5094C47.0961 13.8657 46.7135 13.4549 46.1757 13.2772C45.6379 13.0994 44.9465 13.1596 44.1016 13.4579L42.5023 14.0224L43.9429 18.1036L45.4818 17.5604ZM52.4437 21.3724L51.1462 21.8304C50.8796 21.9245 50.6471 21.8907 50.4486 21.7288L46.2789 18.857C46.1508 18.7665 46.0276 18.7138 45.9092 18.699C45.7941 18.6775 45.6335 18.703 45.4273 18.7758L44.3184 19.1673L45.9108 23.6785L44.4548 24.1924L40.6389 13.3821L43.6941 12.3037C44.3781 12.0622 44.9939 11.924 45.5415 11.8891C46.0873 11.8492 46.5673 11.9031 46.9815 12.051C47.4007 12.1972 47.754 12.4288 48.0412 12.7459C48.3267 13.058 48.5503 13.4429 48.7118 13.9005C48.8467 14.2828 48.9124 14.6611 48.9089 15.0357C48.9054 15.4102 48.835 15.7716 48.6977 16.1198C48.5637 16.4612 48.3636 16.7835 48.0973 17.0868C47.8361 17.3882 47.5137 17.6604 47.13 17.9033C47.3533 17.9433 47.5684 18.0398 47.7752 18.1931L52.4437 21.3724Z"
		fill="#3D5361" />
	<path
		d="M78.0839 17.1635L77.8405 18.4446L71.4508 17.2305L73.5907 5.96801L75.1076 6.25622L73.2111 16.2376L78.0839 17.1635Z"
		fill="#3D5361" />
	<path
		d="M91.148 22.6421L90.5748 23.7687L84.2588 20.605L89.3931 10.355L95.709 13.5187L95.1429 14.6488L90.2146 12.1802L88.5092 15.585L92.5005 17.5842L91.9559 18.6714L87.9646 16.6722L86.2125 20.1699L91.148 22.6421Z"
		fill="#3D5361" />
	<path
		d="M107.33 24.7326C107.24 24.7592 107.16 24.7685 107.087 24.7603C107.023 24.7519 106.961 24.7206 106.902 24.6666C106.835 24.6054 106.787 24.5 106.758 24.3503C106.728 24.2006 106.681 24.0234 106.615 23.8187C106.557 23.6137 106.462 23.3895 106.331 23.1462C106.203 22.9065 106.003 22.6625 105.732 22.4141C105.476 22.18 105.217 22.0085 104.956 21.8993C104.702 21.7898 104.454 21.7329 104.212 21.7285C103.974 21.7277 103.748 21.7774 103.534 21.8776C103.323 21.9738 103.133 22.1143 102.963 22.2993C102.747 22.5354 102.624 22.7843 102.595 23.0461C102.572 23.3076 102.605 23.5798 102.693 23.8628C102.785 24.1494 102.913 24.4438 103.078 24.746C103.25 25.0479 103.422 25.3574 103.595 25.6743C103.771 25.9949 103.929 26.3201 104.068 26.6499C104.215 26.9793 104.307 27.3131 104.345 27.6512C104.387 27.9928 104.355 28.3359 104.249 28.6803C104.148 29.0284 103.937 29.3775 103.616 29.7277C103.278 30.0976 102.896 30.3882 102.472 30.5996C102.05 30.8071 101.608 30.9192 101.145 30.9361C100.685 30.9565 100.215 30.8736 99.7349 30.6873C99.2587 30.5046 98.7963 30.2081 98.3477 29.7977C97.7968 29.2937 97.387 28.7381 97.1185 28.1309C96.8535 27.5198 96.7164 26.8993 96.7073 26.2693L97.5346 26.0287C97.6057 26.0142 97.6755 26.013 97.744 26.025C97.82 26.0367 97.8856 26.0678 97.9406 26.1182C97.9918 26.165 98.0291 26.2388 98.0524 26.3397C98.0833 26.4403 98.1113 26.5598 98.1363 26.6984C98.1613 26.837 98.1928 26.9922 98.2306 27.1642C98.2685 27.3361 98.3255 27.5148 98.4017 27.7002C98.4818 27.8891 98.5886 28.0845 98.7222 28.2861C98.8593 28.4839 99.0361 28.6818 99.2525 28.8798C99.524 29.1282 99.8002 29.3122 100.081 29.4318C100.362 29.5515 100.636 29.611 100.904 29.6104C101.18 29.6095 101.443 29.5506 101.695 29.4337C101.946 29.3168 102.178 29.1423 102.391 28.9102C102.625 28.6544 102.757 28.3918 102.786 28.1225C102.823 27.8528 102.798 27.5765 102.71 27.2935C102.622 27.0105 102.49 26.7201 102.314 26.4221C102.142 26.1202 101.966 25.8147 101.787 25.5056C101.61 25.1925 101.449 24.8713 101.302 24.5418C101.155 24.2124 101.065 23.8767 101.031 23.5347C100.997 23.1927 101.036 22.8417 101.148 22.4819C101.268 22.1217 101.499 21.7547 101.841 21.3809C102.115 21.0818 102.436 20.8448 102.806 20.6698C103.18 20.4985 103.576 20.4054 103.994 20.3905C104.416 20.3793 104.848 20.4564 105.29 20.6217C105.735 20.7907 106.168 21.0677 106.589 21.453C107.062 21.885 107.422 22.3521 107.671 22.8545C107.924 23.3604 108.068 23.89 108.104 24.4433L107.33 24.7326Z"
		fill="#3D5361" />
	<path
		d="M119.917 56.8144C119.989 57.2565 120.105 57.6374 120.266 57.957C120.432 58.281 120.631 58.5403 120.863 58.7348C121.101 58.9336 121.366 59.0686 121.659 59.1396C121.952 59.2106 122.264 59.219 122.595 59.1648C123.269 59.0546 123.741 58.7504 124.011 58.2523C124.28 57.7542 124.343 57.0631 124.198 56.1788L123.925 54.5051L119.653 55.2038L119.917 56.8144ZM114.937 62.9953L114.715 61.6374C114.67 61.3584 114.744 61.1355 114.938 60.9686L118.5 57.3704C118.612 57.2602 118.685 57.1482 118.721 57.0344C118.762 56.9249 118.765 56.7622 118.73 56.5464L118.54 55.3859L113.819 56.1582L113.57 54.6344L124.883 52.7837L125.406 55.9812C125.523 56.697 125.551 57.3275 125.489 57.8727C125.432 58.417 125.294 58.88 125.076 59.2616C124.858 59.6485 124.568 59.9554 124.205 60.1823C123.847 60.4083 123.429 60.5605 122.95 60.6388C122.55 60.7043 122.166 60.7023 121.798 60.6328C121.43 60.5633 121.087 60.4303 120.768 60.2338C120.456 60.0417 120.174 59.7879 119.922 59.4724C119.671 59.1621 119.46 58.7967 119.289 58.3762C119.21 58.5891 119.077 58.7838 118.89 58.9603L114.937 62.9953Z"
		fill="#3D5361" />
	<path
		d="M115.213 76.9369L113.961 76.7607L114.902 69.7596L126.263 71.2859L125.323 78.287L124.07 78.1187L124.804 72.6558L121.03 72.1488L120.436 76.5731L119.23 76.4112L119.825 71.9869L115.948 71.4661L115.213 76.9369ZM128.699 78.3289L126.779 75.4395C126.716 75.3503 126.681 75.2676 126.675 75.1915C126.669 75.1153 126.673 75.0244 126.688 74.9187L126.824 73.9038L128.75 76.0272C128.855 76.1327 128.914 76.2321 128.928 76.3255C128.942 76.4242 128.937 76.5608 128.914 76.7352L128.699 78.3289Z"
		fill="#3D5361" />
	<path
		d="M113.379 90.9733L118.369 91.2775C118.518 91.2867 118.686 91.3024 118.876 91.3245C119.07 91.3488 119.273 91.38 119.484 91.4181C119.138 91.1365 118.858 90.8824 118.645 90.6558L115.16 87.0815L113.379 90.9733ZM108.164 92.1409L108.664 91.0498C108.721 90.9237 108.8 90.8363 108.898 90.7875C108.997 90.7388 109.103 90.7172 109.218 90.7228L112.181 90.9L114.322 86.2226L112.251 84.0959C112.177 84.0268 112.125 83.9356 112.095 83.822C112.065 83.7085 112.077 83.5911 112.133 83.4699L112.632 82.3788L121.149 91.3178L120.496 92.7436L108.164 92.1409Z"
		fill="#3D5361" />
	<path
		d="M101.394 102.729L100.41 101.874L104.676 96.9643L113.329 104.483L112.317 105.649L104.647 98.985L101.394 102.729Z"
		fill="#3D5361" />
	<path d="M93.8872 107.225L95.1445 106.315L101.866 115.601L100.609 116.511L93.8872 107.225Z" fill="#3D5361" />
	<path
		d="M85.5425 122.499C85.5558 122.407 85.5812 122.33 85.6188 122.268C85.6535 122.213 85.7078 122.17 85.7815 122.139C85.8651 122.104 85.981 122.104 86.1292 122.14C86.2774 122.176 86.4582 122.207 86.6716 122.233C86.8822 122.266 87.1255 122.274 87.4015 122.257C87.6727 122.241 87.9779 122.162 88.3172 122.02C88.6368 121.885 88.901 121.722 89.1097 121.531C89.3155 121.346 89.471 121.144 89.5763 120.927C89.6766 120.711 89.7262 120.485 89.7251 120.248C89.7261 120.016 89.6781 119.785 89.581 119.554C89.4571 119.259 89.2826 119.043 89.0574 118.906C88.8293 118.776 88.5683 118.692 88.2745 118.653C87.9757 118.617 87.6547 118.61 87.3114 118.633C86.9652 118.662 86.612 118.689 86.2519 118.713C85.8868 118.739 85.5254 118.747 85.1676 118.735C84.807 118.73 84.4653 118.674 84.1425 118.567C83.8149 118.461 83.5167 118.289 83.2482 118.049C82.9747 117.811 82.746 117.473 82.5622 117.035C82.3681 116.573 82.264 116.105 82.25 115.63C82.238 115.161 82.3214 114.712 82.5003 114.284C82.6743 113.859 82.9464 113.467 83.3167 113.109C83.6821 112.753 84.145 112.457 84.7056 112.222C85.394 111.933 86.0702 111.793 86.734 111.804C87.3999 111.819 88.0208 111.954 88.5967 112.21L88.4686 113.062C88.452 113.133 88.4239 113.197 88.3842 113.254C88.3417 113.318 88.2861 113.364 88.2172 113.393C88.1533 113.42 88.0707 113.423 87.9693 113.402C87.865 113.388 87.7447 113.363 87.6084 113.328C87.4721 113.293 87.318 113.256 87.146 113.218C86.974 113.181 86.7878 113.158 86.5876 113.149C86.3825 113.143 86.1604 113.158 85.9213 113.195C85.6843 113.237 85.4305 113.314 85.1601 113.428C84.8208 113.57 84.538 113.744 84.3117 113.949C84.0854 114.154 83.9164 114.378 83.8047 114.622C83.6901 114.872 83.6332 115.136 83.634 115.414C83.6348 115.691 83.6961 115.975 83.8179 116.265C83.9521 116.584 84.1354 116.814 84.3675 116.954C84.5969 117.1 84.8585 117.193 85.1523 117.231C85.4462 117.27 85.7652 117.272 86.1093 117.237C86.4554 117.208 86.8065 117.176 87.1625 117.142C87.5206 117.113 87.88 117.101 88.2406 117.106C88.6012 117.111 88.944 117.169 89.2688 117.281C89.5936 117.394 89.8959 117.576 90.1756 117.829C90.4524 118.089 90.6889 118.452 90.8851 118.919C91.042 119.293 91.1225 119.684 91.1266 120.093C91.1257 120.505 91.0443 120.903 90.8825 121.289C90.7158 121.677 90.4649 122.037 90.1299 122.369C89.7899 122.703 89.3568 122.98 88.8307 123.201C88.2406 123.449 87.6654 123.58 87.105 123.596C86.5397 123.613 85.9983 123.523 85.4808 123.324L85.5425 122.499Z"
		fill="#3D5361" />
	<path
		d="M69.1168 120.515L71.4244 124.95C71.4928 125.082 71.5663 125.234 71.6448 125.408C71.7238 125.587 71.8014 125.777 71.8776 125.978C71.9408 125.536 72.0147 125.165 72.0993 124.866L73.3703 120.039L69.1168 120.515ZM65.4315 116.645L66.624 116.511C66.7618 116.496 66.877 116.518 66.9695 116.577C67.062 116.637 67.1354 116.717 67.1897 116.818L68.5629 119.45L73.675 118.878L74.4325 116.008C74.4536 115.909 74.5051 115.817 74.5869 115.733C74.6687 115.648 74.7758 115.599 74.9083 115.584L76.1009 115.451L72.8204 127.353L71.2622 127.528L65.4315 116.645Z"
		fill="#3D5361" />
	<path
		d="M50.0384 124.74L53.6876 125.42L55.5488 115.432L57.0666 115.715L55.2055 125.703L58.8625 126.384L58.6237 127.666L49.7996 126.022L50.0384 124.74Z"
		fill="#3D5361" />
	<path d="M44.286 111.778L45.7014 112.415L40.9988 122.87L39.5834 122.233L44.286 111.778Z" fill="#3D5361" />
	<path
		d="M25.5819 105.883C26.1283 105.22 26.7355 104.698 27.4035 104.316C28.068 103.937 28.7563 103.707 29.4681 103.623C30.1799 103.54 30.8969 103.609 31.6191 103.832C32.3339 104.055 33.0162 104.434 33.6663 104.971C34.3163 105.507 34.8188 106.105 35.1738 106.764C35.5254 107.427 35.7279 108.116 35.7813 108.831C35.8347 109.546 35.7389 110.265 35.494 110.99C35.2456 111.718 34.8483 112.414 34.3019 113.076C33.7555 113.738 33.15 114.259 32.4854 114.637C31.8174 115.019 31.1275 115.252 30.4156 115.336C29.7004 115.423 28.9838 115.357 28.2657 115.138C27.5476 114.919 26.8635 114.542 26.2134 114.005C25.5634 113.469 25.0626 112.869 24.711 112.206C24.3553 111.539 24.1525 110.847 24.1024 110.128C24.049 109.413 24.1465 108.691 24.3948 107.963C24.6398 107.239 25.0355 106.545 25.5819 105.883ZM26.8099 106.896C26.362 107.439 26.0338 107.988 25.8256 108.542C25.6174 109.096 25.5268 109.633 25.554 110.153C25.5778 110.678 25.7169 111.179 25.9713 111.659C26.2256 112.138 26.5914 112.575 27.0687 112.969C27.5418 113.359 28.0379 113.633 28.557 113.792C29.0761 113.951 29.5974 113.993 30.1208 113.92C30.6366 113.848 31.1468 113.657 31.6513 113.347C32.1557 113.038 32.632 112.611 33.0799 112.068C33.5279 111.525 33.856 110.976 34.0643 110.422C34.2691 109.872 34.3597 109.335 34.3359 108.811C34.3046 108.287 34.1617 107.785 33.9074 107.306C33.6496 106.831 33.2842 106.398 32.811 106.007C32.3338 105.614 31.8373 105.336 31.3216 105.173C30.8025 105.014 30.285 104.971 29.7691 105.043C29.2499 105.12 28.7397 105.311 28.2386 105.616C27.7342 105.926 27.2579 106.353 26.8099 106.896Z"
		fill="#3D5361" />
	<path
		d="M10.4227 94.3278L20.2692 88.4566L20.6666 89.1231C20.7294 89.2284 20.7644 89.3287 20.7714 89.4238C20.7758 89.5144 20.7549 89.62 20.7088 89.7406L16.6844 99.8617C16.7935 99.7843 16.9016 99.7105 17.0088 99.6404C17.116 99.5702 17.2177 99.5065 17.3139 99.4491L24.3294 95.2659L25.026 96.434L15.1795 102.305L14.7698 101.618C14.7343 101.559 14.7088 101.505 14.6934 101.459C14.6734 101.415 14.663 101.371 14.6622 101.328C14.6568 101.288 14.6606 101.242 14.6736 101.191C14.6819 101.143 14.6981 101.086 14.7221 101.023L18.7396 90.9055C18.6259 90.9857 18.5169 91.0631 18.4124 91.1378C18.3006 91.2107 18.1943 91.2772 18.0935 91.3373L11.1193 95.4959L10.4227 94.3278Z"
		fill="#3D5361" />
	<path
		d="M6.70526 77.5748C6.79416 77.6031 6.86613 77.6408 6.92117 77.6881C6.96978 77.7314 7.0033 77.792 7.02173 77.8698C7.04262 77.958 7.02308 78.0723 6.96311 78.2125C6.90314 78.3528 6.84276 78.526 6.78196 78.7322C6.71475 78.9345 6.66713 79.1732 6.6391 79.4484C6.60985 79.7184 6.63761 80.0325 6.72238 80.3906C6.80225 80.7279 6.9196 81.0153 7.07445 81.2527C7.22288 81.4861 7.39583 81.6726 7.5933 81.8122C7.78954 81.9466 8.0045 82.0327 8.23817 82.0706C8.46665 82.1096 8.70286 82.1003 8.94678 82.0426C9.25818 81.9689 9.49985 81.8322 9.67182 81.6325C9.83737 81.4289 9.96331 81.1853 10.0497 80.9018C10.1348 80.6131 10.1943 80.2976 10.2284 79.9552C10.256 79.6088 10.2876 79.2561 10.3231 78.8969C10.3575 78.5325 10.4098 78.1748 10.4802 77.8239C10.5441 77.4689 10.6556 77.1411 10.8146 76.8404C10.9724 76.5345 11.1917 76.2688 11.4727 76.0433C11.7524 75.8127 12.1232 75.6427 12.5851 75.5333C13.073 75.4178 13.5519 75.3922 14.022 75.4563C14.4869 75.5216 14.9157 75.6777 15.3085 75.9245C15.7 76.1661 16.0419 76.499 16.3341 76.9231C16.6251 77.342 16.8406 77.8472 16.9807 78.4389C17.1527 79.1655 17.179 79.8553 17.0596 80.5084C16.9349 81.1627 16.6992 81.7529 16.3524 82.2789L15.533 82.0125C15.4661 81.9845 15.4077 81.9463 15.3579 81.8978C15.3016 81.8453 15.2649 81.7828 15.2477 81.7101C15.2317 81.6426 15.2424 81.5606 15.2799 81.4641C15.3109 81.3636 15.355 81.249 15.4122 81.1203C15.4695 80.9917 15.5308 80.8456 15.5962 80.6822C15.6617 80.5187 15.715 80.3389 15.7563 80.1428C15.7963 79.9415 15.8179 79.7199 15.8209 79.478C15.8187 79.2374 15.7839 78.9743 15.7163 78.6889C15.6315 78.3308 15.5066 78.0233 15.3417 77.7664C15.1767 77.5095 14.9833 77.3059 14.7614 77.1556C14.533 77.0014 14.282 76.9019 14.0083 76.8571C13.7347 76.8123 13.4447 76.8261 13.1385 76.8986C12.8012 76.9784 12.5445 77.1214 12.3686 77.3275C12.1863 77.5296 12.0519 77.7724 11.9656 78.0559C11.8792 78.3394 11.8248 78.6537 11.8024 78.9989C11.7748 79.3452 11.7484 79.6967 11.7232 80.0535C11.6929 80.4114 11.6457 80.7679 11.5818 81.1228C11.5178 81.4778 11.4037 81.8062 11.2396 82.1082C11.0754 82.4101 10.8456 82.6782 10.5503 82.9126C10.2486 83.1429 9.85124 83.3165 9.3582 83.4332C8.96377 83.5266 8.5645 83.5416 8.16039 83.4783C7.75505 83.4099 7.37525 83.2641 7.02101 83.0411C6.66553 82.8128 6.35179 82.5062 6.07977 82.1212C5.80653 81.7309 5.60418 81.2582 5.47271 80.7029C5.32528 80.0801 5.28996 79.491 5.36678 78.9357C5.44236 78.3752 5.62091 77.8561 5.90243 77.3784L6.70526 77.5748Z"
		fill="#3D5361" />
	<path
		d="M80.1157 67H50.1157M80.1157 67L79.0085 66.4491C74.3599 64.1362 70.8898 59.9851 69.4378 55V55M80.1157 67V67C74.94 68.4101 70.9526 72.542 69.7275 77.7646L69.4378 79"
		stroke="#3D5361" />
</svg>