<svg width="98" height="98" viewBox="0 0 98 98" fill="none" xmlns="http://www.w3.org/2000/svg">
	<g clip-path="url(#clip0_277_22)">
		<path
			d="M3.66039 31.0247L13.2575 38.8443L12.8506 40.1754L0.521484 41.2916L0.884085 40.1058C0.924585 39.9732 0.990485 39.8762 1.08169 39.8149C1.17299 39.7536 1.27588 39.7181 1.39028 39.7085L10.0699 38.9823C10.2636 38.969 10.4718 38.963 10.6945 38.9642C10.9188 38.9602 11.1509 38.9671 11.3909 38.9847C11.1821 38.865 10.9843 38.746 10.7974 38.6275C10.6105 38.5091 10.4405 38.3902 10.2874 38.2708L3.49539 32.8231C3.41799 32.7659 3.35689 32.6831 3.31199 32.5746C3.26359 32.4594 3.25878 32.338 3.29778 32.2105L3.66039 31.0247Z"
			fill="#3D5361" />
		<path
			d="M22.9405 15.048C23.5247 15.6774 23.962 16.3484 24.2524 17.0611C24.5393 17.77 24.6769 18.4827 24.6654 19.1993C24.6538 19.9159 24.4899 20.6174 24.1738 21.3038C23.8579 21.9827 23.3912 22.6087 22.7736 23.182C22.156 23.7553 21.497 24.1742 20.7965 24.4387C20.0924 24.6993 19.3826 24.8088 18.6672 24.767C17.9517 24.7253 17.2512 24.5351 16.5656 24.1963C15.8764 23.8537 15.2398 23.3677 14.6556 22.7384C14.0714 22.109 13.6359 21.4399 13.3491 20.7311C13.0586 20.0184 12.9191 19.3037 12.9307 18.5871C12.9387 17.8666 13.0988 17.1649 13.411 16.4822C13.7232 15.7994 14.1881 15.1714 14.8057 14.5981C15.4233 14.0248 16.0842 13.6079 16.7883 13.3473C17.4963 13.083 18.2098 12.9737 18.9289 13.0194C19.6444 13.0611 20.3467 13.2533 21.0359 13.5959C21.7215 13.9347 22.3563 14.4187 22.9405 15.048ZM21.7737 16.1311C21.2947 15.6151 20.7944 15.2172 20.2727 14.9374C19.751 14.6576 19.2306 14.4967 18.7113 14.4548C18.1885 14.4089 17.6726 14.4802 17.1636 14.6689C16.6547 14.8575 16.1735 15.1622 15.7201 15.5831C15.2705 16.0004 14.9328 16.4558 14.7069 16.9493C14.481 17.4428 14.3695 17.9538 14.3725 18.4822C14.3757 19.0031 14.4975 19.5341 14.7377 20.0752C14.978 20.6162 15.3376 21.1448 15.8165 21.6607C16.2955 22.1767 16.7958 22.5746 17.3175 22.8544C17.8356 23.1303 18.356 23.2912 18.8789 23.3371C19.402 23.3754 19.9181 23.3003 20.427 23.1117C20.9323 22.9191 21.4097 22.6142 21.8593 22.197C22.3127 21.7761 22.6542 21.3208 22.8837 20.8312C23.1097 20.3377 23.221 19.8305 23.2178 19.3096C23.2109 18.7848 23.0891 18.2538 22.8525 17.7166C22.6122 17.1756 22.2526 16.6471 21.7737 16.1311Z"
			fill="#3D5361" />
		<path d="M37.317 14.2374L35.8414 14.7184L32.2885 3.81877L33.7641 3.33777L37.317 14.2374Z" fill="#3D5361" />
		<path
			d="M50.6428 6.55393C51.0891 6.59293 51.4869 6.57413 51.8362 6.49753C52.1913 6.41603 52.4917 6.28703 52.7373 6.11043C52.9887 5.92893 53.1849 5.70513 53.3259 5.43903C53.4669 5.17293 53.552 4.87253 53.5812 4.53783C53.6406 3.85773 53.4622 3.32553 53.046 2.94123C52.6298 2.55693 51.9755 2.32583 51.0828 2.24793L49.3933 2.10043L49.017 6.41203L50.6428 6.55393ZM55.4047 12.904L54.0339 12.7844C53.7523 12.7598 53.5546 12.6328 53.4408 12.4034L50.8322 8.06413C50.753 7.92873 50.6626 7.82983 50.561 7.76743C50.4651 7.70023 50.3083 7.65703 50.0904 7.63803L48.9189 7.53583L48.503 12.3016L46.9648 12.1674L47.9615 0.746826L51.1893 1.02853C51.9119 1.09163 52.5297 1.22053 53.0427 1.41513C53.5562 1.60453 53.9709 1.85213 54.2868 2.15813C54.608 2.46453 54.8338 2.82153 54.9642 3.22913C55.0951 3.63133 55.1394 4.07423 55.0972 4.55773C55.062 4.96153 54.9653 5.33313 54.8072 5.67273C54.6491 6.01223 54.4355 6.31213 54.1665 6.57243C53.9033 6.82783 53.5878 7.03853 53.22 7.20453C52.8575 7.37093 52.4513 7.48543 52.0015 7.54783C52.1884 7.67663 52.3443 7.85343 52.4692 8.07853L55.4047 12.904Z"
			fill="#3D5361" />
		<path
			d="M84.9246 36.9897L83.7241 37.4987L81.1853 31.5106L91.74 27.0357L92.342 28.4572L82.9885 32.4231L84.9246 36.9897Z"
			fill="#3D5361" />
		<path
			d="M86.672 53.9324L85.4098 53.8644L85.7456 46.8083L97.197 47.3533L96.861 54.4093L95.598 54.3492L95.86 48.8435L92.057 48.6624L91.844 53.1214L90.63 53.0636L90.842 48.6046L86.9344 48.4187L86.672 53.9324Z"
			fill="#3D5361" />
		<path
			d="M67.28 92.153C67.2878 92.06 67.3087 91.981 67.3426 91.917C67.374 91.86 67.4257 91.814 67.4975 91.779C67.5789 91.739 67.6946 91.733 67.8447 91.76C67.9948 91.787 68.1771 91.808 68.3916 91.821C68.6038 91.842 68.8471 91.836 69.1217 91.802C69.3914 91.771 69.6915 91.674 70.0219 91.512C70.3332 91.359 70.5874 91.181 70.7845 90.977C70.9792 90.781 71.1228 90.571 71.2151 90.348C71.3027 90.126 71.339 89.898 71.3241 89.661C71.3116 89.43 71.2501 89.202 71.1398 88.977C70.9988 88.689 70.812 88.484 70.5792 88.361C70.3439 88.244 70.0785 88.175 69.7829 88.154C69.4825 88.135 69.1616 88.147 68.8202 88.19C68.4764 88.239 68.1254 88.287 67.7672 88.332C67.4043 88.379 67.0438 88.407 66.686 88.417C66.3257 88.433 65.9814 88.397 65.6529 88.308C65.3197 88.222 65.012 88.067 64.7298 87.843C64.4429 87.622 64.195 87.298 63.986 86.872C63.7652 86.422 63.634 85.96 63.5923 85.488C63.5529 85.02 63.6101 84.567 63.7637 84.129C63.9125 83.694 64.1613 83.2869 64.5101 82.9079C64.8541 82.5313 65.299 82.2091 65.8449 81.9414C66.5153 81.6126 67.1821 81.4341 67.8454 81.4058C68.5111 81.3822 69.1388 81.4813 69.7286 81.7029L69.6505 82.5609C69.638 82.6324 69.6137 82.6978 69.5774 82.7571C69.5388 82.8236 69.4859 82.8733 69.4189 82.9062C69.3566 82.9367 69.2743 82.9444 69.1718 82.9294C69.0669 82.9214 68.9454 82.9038 68.8073 82.8765C68.6692 82.8492 68.5131 82.8217 68.3392 82.7942C68.1653 82.7666 67.9782 82.7544 67.7778 82.7577C67.5726 82.7632 67.3518 82.7914 67.1153 82.842C66.8811 82.8975 66.6323 82.9898 66.3689 83.1189C66.0385 83.281 65.7664 83.4709 65.5524 83.6887C65.3385 83.9065 65.1828 84.14 65.0855 84.39C64.9857 84.647 64.9443 84.914 64.9613 85.19C64.9782 85.467 65.056 85.747 65.1946 86.029C65.3472 86.341 65.5435 86.559 65.7835 86.685C66.021 86.818 66.2875 86.895 66.5831 86.917C66.8787 86.938 67.1973 86.921 67.5388 86.867C67.8826 86.817 68.2313 86.765 68.5847 86.71C68.9405 86.66 69.2985 86.627 69.6588 86.611C70.0191 86.595 70.3646 86.633 70.6955 86.726C71.0263 86.82 71.3387 86.984 71.6327 87.22C71.9242 87.463 72.1815 87.812 72.4046 88.267C72.5831 88.631 72.6863 89.017 72.7141 89.425C72.7372 89.836 72.6793 90.238 72.5403 90.633C72.3965 91.03 72.167 91.404 71.8519 91.755C71.532 92.108 71.1158 92.41 70.6034 92.661C70.0288 92.943 69.4623 93.108 68.9038 93.156C68.3405 93.207 67.7947 93.148 67.2665 92.979L67.28 92.153Z"
			fill="#3D5361" />
		<path d="M51.6626 86.191L53.209 86.06L54.1795 97.483L52.6331 97.614L51.6626 86.191Z" fill="#3D5361" />
		<path
			d="M31.3877 93.328L34.9318 94.432L37.9531 84.731L39.4273 85.191L36.406 94.891L39.9577 95.997L39.5699 97.242L31 94.573L31.3877 93.328Z"
			fill="#3D5361" />
		<path
			d="M20.2031 75.0145L21.0851 74.1091L26.1763 79.0061L18.229 87.268L13.1379 82.3713L14.0142 81.4603L17.9867 85.281L20.6266 82.537L17.4093 79.4424L18.2523 78.566L21.4695 81.6606L24.1815 78.8411L20.2031 75.0145Z"
			fill="#3D5361" />
		<path
			d="M65.3103 48.9999H35.3103M65.3103 48.9999L64.2031 48.449C59.5544 46.1361 56.0844 41.985 54.6323 36.9999M65.3103 48.9999C60.1346 50.41 56.1471 54.5419 54.9221 59.7645L54.6323 60.9999"
			stroke="#3D5361" />
	</g>
	<defs>
		<clipPath id="clip0_277_22">
			<rect width="98" height="98" fill="white" />
		</clipPath>
	</defs>
</svg>