<svg width="102" height="102" viewBox="0 0 102 102" fill="none" xmlns="http://www.w3.org/2000/svg">
	<path
		d="M65.9999 51.4335H35.9999M65.9999 51.4335L64.8927 50.8826C60.244 48.5697 56.774 44.4186 55.3219 39.4335V39.4335M65.9999 51.4335V51.4335C60.8242 52.8436 56.8367 56.9755 55.6117 62.1981L55.3219 63.4335"
		stroke="#3D5361" />
	<path
		d="M4.98322 51.2275L16.9297 54.4727L17.0988 55.8544L6.287 61.884L6.13642 60.6532C6.11958 60.5156 6.14039 60.4002 6.19884 60.3071C6.2573 60.214 6.33688 60.1397 6.43757 60.0844L14.0732 55.8942C14.2448 55.8033 14.4326 55.7132 14.6365 55.6237C14.8399 55.529 15.0548 55.4409 15.2812 55.3595C15.0418 55.3351 14.8127 55.3067 14.5938 55.2743C14.3749 55.242 14.1713 55.2025 13.9829 55.1557L5.5632 52.9377C5.46932 52.917 5.37982 52.8661 5.29469 52.7852C5.20363 52.6996 5.15 52.5907 5.13381 52.4583L4.98322 51.2275Z"
		fill="#3D5361" />
	<path
		d="M15.11 32.4094C15.9204 32.6932 16.6205 33.0823 17.2102 33.5769C17.7948 34.0698 18.2493 34.6358 18.5737 35.2749C18.8981 35.9139 19.0808 36.6108 19.1218 37.3654C19.1595 38.1131 19.0391 38.8847 18.7607 39.68C18.4823 40.4754 18.0951 41.1536 17.5992 41.7145C17.0983 42.2738 16.5218 42.702 15.8696 42.9992C15.2174 43.2964 14.5092 43.4553 13.7448 43.4759C12.9753 43.4947 12.1854 43.3623 11.3749 43.0786C10.5645 42.7948 9.86696 42.4065 9.2823 41.9137C8.69262 41.4191 8.23558 40.8522 7.91119 40.2131C7.58176 39.5723 7.39568 38.8771 7.35294 38.1275C7.31021 37.378 7.42805 36.6056 7.70648 35.8102C7.98491 35.0149 8.37459 34.3376 8.8755 33.7784C9.37817 33.2141 9.95811 32.7842 10.6153 32.4888C11.2675 32.1916 11.9783 32.0336 12.7477 32.0147C13.5121 31.9942 14.2995 32.1257 15.11 32.4094ZM14.5839 33.912C13.9195 33.6794 13.2913 33.5612 12.6993 33.5574C12.1073 33.5536 11.5719 33.6543 11.0932 33.8597C10.6094 34.0633 10.1865 34.3673 9.82457 34.7717C9.46261 35.1762 9.17942 35.6704 8.975 36.2543C8.77234 36.8332 8.68635 37.3936 8.71702 37.9355C8.74769 38.4774 8.88772 38.9813 9.13712 39.4472C9.38325 39.9063 9.73886 40.319 10.204 40.6852C10.6691 41.0515 11.2339 41.3509 11.8983 41.5835C12.5628 41.8161 13.191 41.9343 13.783 41.9382C14.37 41.9402 14.9053 41.8395 15.3891 41.6359C15.8696 41.4255 16.2908 41.1181 16.6528 40.7136C17.0097 40.3074 17.2895 39.8149 17.4922 39.236C17.6966 38.652 17.786 38.09 17.7603 37.5499C17.7297 37.008 17.5913 36.5075 17.3452 36.0484C17.094 35.5875 16.7384 35.1748 16.2783 34.8103C15.8132 34.4441 15.2484 34.1446 14.5839 33.912Z"
		fill="#3D5361" />
	<path d="M25.4919 27.9938L24.4752 29.1664L15.8137 21.6563L16.8304 20.4837L25.4919 27.9938Z" fill="#3D5361" />
	<path
		d="M30.8523 16.0776C31.2442 15.8605 31.5636 15.6227 31.8105 15.3639C32.0595 15.098 32.2365 14.8231 32.3415 14.5394C32.4485 14.2484 32.4862 13.9532 32.4544 13.6537C32.4227 13.3543 32.3254 13.0576 32.1626 12.7637C31.8318 12.1665 31.3865 11.8248 30.8266 11.7387C30.2667 11.6525 29.5949 11.8265 28.8111 12.2607L27.3275 13.0825L29.4247 16.8685L30.8523 16.0776ZM38.3498 18.6829L37.1461 19.3497C36.8989 19.4866 36.6639 19.4918 36.4414 19.3651L31.8533 17.2242C31.712 17.1562 31.5817 17.1247 31.4626 17.1297C31.3455 17.1275 31.1913 17.1794 31 17.2853L29.9713 17.8552L32.2895 22.04L30.9389 22.7882L25.3838 12.76L28.218 11.19C28.8525 10.8385 29.4368 10.6002 29.9711 10.4749C30.5027 10.3451 30.985 10.3187 31.418 10.3959C31.8556 10.4705 32.2424 10.6404 32.5783 10.9055C32.9115 11.166 33.1958 11.5085 33.4309 11.933C33.6274 12.2876 33.7549 12.6498 33.8135 13.0198C33.8721 13.3897 33.8625 13.7578 33.7849 14.1239C33.7094 14.4828 33.5654 14.8338 33.3531 15.177C33.1455 15.5176 32.8726 15.8395 32.5345 16.1426C32.7614 16.145 32.9895 16.2046 33.2189 16.3214L38.3498 18.6829Z"
		fill="#3D5361" />
	<path
		d="M87.8026 22.776L79.6698 30.8556L78.7113 29.8908L84.6874 23.9537C84.7669 23.8748 84.8539 23.7921 84.9485 23.7056C85.0468 23.623 85.147 23.5385 85.2491 23.4521L77.39 25.7117C77.1332 25.7938 76.9166 25.746 76.7399 25.5681L76.582 25.4092C76.4054 25.2314 76.3589 25.0144 76.4427 24.7582L78.7201 16.8347C78.5422 17.0567 78.368 17.2522 78.1978 17.4214L72.2216 23.3585L71.2631 22.3937L79.3959 14.314L80.2022 15.1256C80.2999 15.2239 80.3656 15.309 80.3993 15.3808C80.433 15.4525 80.4308 15.5562 80.3927 15.6919L78.1779 23.4742C78.1322 23.6098 78.0809 23.7473 78.0239 23.8866C77.9706 24.0297 77.9117 24.171 77.8471 24.3103C77.9868 24.2466 78.1266 24.1868 78.2663 24.1306C78.4098 24.0708 78.5514 24.0203 78.6911 23.9793L86.4313 21.7702C86.5634 21.7291 86.6652 21.7257 86.7368 21.7599C86.8121 21.7978 86.8986 21.866 86.9963 21.9644L87.8026 22.776Z"
		fill="#3D5361" />
	<path
		d="M91.2655 45.5745C90.4379 45.8033 89.6408 45.8825 88.8744 45.8121C88.1131 45.7404 87.417 45.5344 86.7862 45.1942C86.1555 44.8539 85.6082 44.3855 85.1445 43.7888C84.6873 43.1958 84.3464 42.4933 84.1219 41.6811C83.8974 40.8689 83.829 40.091 83.9167 39.3474C84.0096 38.6024 84.2392 37.9219 84.6057 37.306C84.9722 36.6901 85.4636 36.1559 86.08 35.7033C86.7015 35.2493 87.426 34.9079 88.2537 34.6791C89.0813 34.4503 89.8758 34.3718 90.6371 34.4435C91.4035 34.5139 92.1021 34.7192 92.7329 35.0594C93.3688 35.3982 93.918 35.8634 94.3803 36.4549C94.8426 37.0464 95.186 37.7483 95.4105 38.5605C95.6351 39.3727 95.7009 40.1513 95.608 40.8963C95.5166 41.6465 95.2851 42.3302 94.9134 42.9476C94.547 43.5635 94.053 44.0984 93.4315 44.5524C92.8151 45.005 92.0931 45.3457 91.2655 45.5745ZM90.8413 44.04C91.5199 43.8524 92.1034 43.5915 92.592 43.2573C93.0806 42.923 93.4631 42.5351 93.7394 42.0935C94.0209 41.6505 94.1951 41.1596 94.262 40.621C94.3289 40.0824 94.28 39.5149 94.1151 38.9186C93.9517 38.3275 93.703 37.818 93.3689 37.3902C93.0349 36.9624 92.6326 36.6282 92.1621 36.3875C91.6982 36.1505 91.1708 36.0141 90.5799 35.9782C89.989 35.9424 89.3542 36.0183 88.6757 36.2058C87.9971 36.3934 87.4136 36.6543 86.925 36.9886C86.4415 37.3214 86.059 37.7094 85.7776 38.1524C85.5027 38.5991 85.3317 39.0918 85.2648 39.6304C85.2031 40.1676 85.2539 40.7318 85.4173 41.323C85.5822 41.9193 85.829 42.432 86.1579 42.8612C86.492 43.289 86.891 43.6214 87.3549 43.8584C87.8239 44.0939 88.3513 44.2303 88.9371 44.2676C89.528 44.3035 90.1628 44.2276 90.8413 44.04Z"
		fill="#3D5361" />
	<path
		d="M94.9978 64.873L83.7996 62.4187L83.9657 61.6607C83.992 61.5409 84.0351 61.4439 84.095 61.3697C84.1538 61.3007 84.2413 61.2379 84.3574 61.1815L94.2169 56.553C94.0844 56.5348 93.955 56.5147 93.8288 56.4925C93.7027 56.4703 93.5849 56.4472 93.4755 56.4232L85.4969 54.6746L85.788 53.3461L96.9862 55.8004L96.8149 56.5818C96.8001 56.6496 96.7823 56.7057 96.7616 56.7503C96.7462 56.7961 96.724 56.8349 96.6952 56.8668C96.6715 56.8998 96.6375 56.9306 96.593 56.9591C96.5538 56.9887 96.5035 57.0186 96.4423 57.0489L86.5906 61.6791C86.7284 61.6984 86.8609 61.7165 86.9882 61.7335C87.1196 61.7568 87.2426 61.7811 87.3572 61.8062L95.2889 63.5446L94.9978 64.873Z"
		fill="#3D5361" />
	<path
		d="M50.3415 87.862C50.2565 87.8694 50.1791 87.8414 50.1093 87.7779L49.4376 87.1703C49.8577 86.5874 50.3891 86.1151 51.032 85.7536C51.6696 85.3925 52.4612 85.1705 53.4069 85.0876C54.2251 85.0158 54.9812 85.0914 55.6754 85.3143C56.37 85.5425 56.976 85.8909 57.4936 86.3595C58.0117 86.8334 58.4323 87.4175 58.7555 88.1119C59.0787 88.8064 59.2781 89.5839 59.3536 90.4446C59.429 91.3053 59.3627 92.1062 59.1547 92.8472C58.9466 93.5882 58.6208 94.2378 58.1772 94.796C57.7283 95.3547 57.1735 95.8049 56.5128 96.1466C55.8526 96.4936 55.108 96.7034 54.2792 96.7761C53.4663 96.8473 52.7377 96.7801 52.0932 96.5742C51.4488 96.3684 50.8706 96.0631 50.3586 95.6583L50.8065 94.9043C50.8337 94.8483 50.8722 94.7995 50.9221 94.7576C50.9671 94.7215 51.0321 94.6998 51.1171 94.6923C51.2128 94.6839 51.3341 94.7242 51.4811 94.813C51.6285 94.9071 51.8194 95.0082 52.0537 95.1161C52.288 95.2241 52.577 95.3138 52.9206 95.3854C53.2646 95.4623 53.681 95.4794 54.1698 95.4365C54.7595 95.3848 55.2897 95.2339 55.7603 94.9838C56.2314 94.7391 56.6279 94.4072 56.9499 93.9881C57.2666 93.5695 57.4987 93.0727 57.6464 92.4976C57.794 91.9225 57.8371 91.2843 57.7756 90.583C57.7132 89.871 57.5566 89.245 57.3058 88.7048C57.0496 88.1652 56.7293 87.7168 56.3446 87.3597C55.9551 87.0083 55.5124 86.7527 55.0165 86.5927C54.5153 86.4332 53.9858 86.3779 53.428 86.4269C53.0879 86.4567 52.7841 86.5021 52.5164 86.563C52.2438 86.6297 51.997 86.7156 51.776 86.8207C51.5497 86.9262 51.3439 87.0513 51.1585 87.196C50.9682 87.3466 50.7827 87.5208 50.602 87.7187C50.5187 87.8063 50.4318 87.854 50.3415 87.862Z"
		fill="#3D5361" />
	<path
		d="M30.691 92.279L38.9561 83.0627L40.2665 83.5322L40.7978 95.9003L39.6305 95.482C39.4999 95.4353 39.4062 95.3648 39.3493 95.2708C39.2923 95.1767 39.2617 95.0723 39.2576 94.9575L38.9431 86.2533C38.939 86.0592 38.9428 85.851 38.9545 85.6286C38.9612 85.4043 38.979 85.1728 39.0079 84.9339C38.8786 85.1368 38.7503 85.3288 38.6231 85.5098C38.4959 85.6909 38.3691 85.855 38.2427 86.0024L32.4795 92.5289C32.4188 92.6035 32.3332 92.6606 32.2226 92.7003C32.1053 92.7432 31.9838 92.7422 31.8583 92.6972L30.691 92.279Z"
		fill="#3D5361" />
</svg>