<svg width="1208" height="344" viewBox="0 0 1208 344" fill="none" xmlns="http://www.w3.org/2000/svg">
<path d="M109.819 342H0.378784V140.4H24.2828V339.12H109.819V342Z" fill="#3D5361"/>
<path d="M148.073 271.728C148.073 295.536 152.201 313.008 160.457 324.144C168.905 335.28 179.945 340.848 193.577 340.848C212.777 340.848 229.865 337.968 244.841 332.208L245.705 334.224C230.345 340.176 212.969 343.152 193.577 343.152C174.377 343.152 158.729 337.392 146.633 325.872C134.537 314.352 128.489 296.592 128.489 272.592C128.489 248.592 134.825 229.968 147.497 216.72C160.169 203.472 176.297 196.848 195.881 196.848C211.625 196.848 224.873 201.552 235.625 210.96C246.377 220.368 251.753 234.288 251.753 252.72C251.753 253.68 251.753 254.64 251.753 255.6H148.937C148.361 260.784 148.073 266.16 148.073 271.728ZM232.169 253.296C231.977 234.864 228.425 221.232 221.513 212.4C214.601 203.568 205.673 199.152 194.729 199.152C183.785 199.152 173.993 203.952 165.353 213.552C156.905 223.152 151.529 236.4 149.225 253.296H232.169Z" fill="#3D5361"/>
<path d="M343.6 199.152C329.968 199.152 318.544 205.68 309.328 218.736C300.304 231.792 295.792 249.84 295.792 272.88C295.792 295.92 299.92 313.008 308.176 324.144C316.624 335.28 327.664 340.848 341.296 340.848C358.384 340.848 373.552 337.968 386.8 332.208L387.664 334.224C374.032 340.176 358.096 343.152 339.856 343.152C321.616 343.152 306.448 337.392 294.352 325.872C282.256 314.352 276.208 296.592 276.208 272.592C276.208 248.592 282.544 229.968 295.216 216.72C307.888 203.472 324.016 196.848 343.6 196.848C354.544 196.848 364.624 199.344 373.84 204.336C383.248 209.328 390.16 216.912 394.576 227.088H376.144C373.264 217.68 368.848 210.672 362.896 206.064C357.136 201.456 350.704 199.152 343.6 199.152Z" fill="#3D5361"/>
<path d="M439.024 308.88C439.024 324.048 443.056 333.744 451.12 337.968C454.96 339.888 459.856 340.848 465.808 340.848C477.904 340.848 488.656 336.24 498.064 327.024C507.664 317.808 512.848 309.264 513.616 301.392V198H533.776V321.552C533.776 327.12 534.832 331.44 536.944 334.512C539.248 337.392 541.552 338.928 543.856 339.12L547.024 339.696H555.952V342H538.384C530.512 342 524.464 340.272 520.24 336.816C516.208 333.36 514.096 329.904 513.904 326.448L513.616 321.552V309.168C510.16 317.424 504.016 325.2 495.184 332.496C486.352 339.6 476.656 343.152 466.096 343.152C455.728 343.152 447.184 342.192 440.464 340.272C433.936 338.16 429.232 335.28 426.352 331.632C421.36 325.68 418.864 318 418.864 308.592V198H439.024V308.88Z" fill="#3D5361"/>
<path d="M637.089 343.152C616.929 343.152 600.513 337.392 587.841 325.872C575.169 314.352 568.833 296.592 568.833 272.592C568.833 248.592 575.361 229.968 588.417 216.72C601.665 203.472 618.369 196.848 638.529 196.848C658.881 196.848 675.393 202.608 688.065 214.128C700.737 225.648 707.073 243.408 707.073 267.408C707.073 291.408 700.449 310.032 687.201 323.28C674.145 336.528 657.441 343.152 637.089 343.152ZM639.105 199.152C624.513 199.152 612.417 205.68 602.817 218.736C593.217 231.6 588.417 249.648 588.417 272.88C588.417 295.92 592.833 313.008 601.665 324.144C610.497 335.28 622.209 340.848 636.801 340.848C651.393 340.848 663.489 334.416 673.089 321.552C682.689 308.496 687.489 290.448 687.489 267.408C687.489 244.176 683.073 226.992 674.241 215.856C665.409 204.72 653.697 199.152 639.105 199.152Z" fill="#3D5361"/>
<path d="M847.884 342C840.012 342 833.964 340.272 829.74 336.816C825.708 333.36 823.596 329.904 823.404 326.448L823.116 321.552V231.12C823.116 215.952 819.18 206.256 811.308 202.032C807.276 200.112 802.284 199.152 796.332 199.152C784.044 199.152 773.004 204.048 763.212 213.84C753.42 223.44 748.524 232.08 748.524 239.76V342H728.364V198H748.524V230.832C751.788 222.576 757.836 214.896 766.668 207.792C775.5 200.496 785.196 196.848 795.756 196.848C806.316 196.848 814.86 197.904 821.388 200.016C828.108 201.936 833.004 204.72 836.076 208.368C840.876 214.32 843.276 222 843.276 231.408V321.552C843.276 327.12 844.332 331.44 846.444 334.512C848.748 337.392 851.052 338.928 853.356 339.12L856.524 339.696H865.452V342H847.884Z" fill="#3D5361"/>
<path d="M1002.9 342C989.846 342 980.918 339.504 976.118 334.512C971.702 330.288 969.494 326.64 969.494 323.568V317.52C960.086 334.608 945.014 343.152 924.278 343.152C900.086 343.152 886.358 332.208 883.094 310.32C882.71 308.016 882.518 305.712 882.518 303.408C882.518 300.912 882.902 298.224 883.67 295.344C884.438 292.464 886.646 289.296 890.294 285.84C897.59 278.928 913.622 274.704 938.39 273.168C944.534 272.592 950.198 272.304 955.382 272.304C960.566 272.304 965.27 272.496 969.494 272.88V225.072C969.11 224.88 969.11 224.016 969.494 222.48C969.878 220.752 969.494 218.64 968.342 216.144C967.382 213.456 966.038 210.864 964.31 208.368C962.582 205.872 959.51 203.76 955.094 202.032C950.678 200.112 944.918 199.152 937.814 199.152C930.71 199.152 922.358 200.496 912.758 203.184C903.35 205.68 896.438 208.176 892.022 210.672L890.87 208.656C907.958 200.784 925.334 196.848 942.998 196.848C962.774 196.848 975.83 200.4 982.166 207.504C987.158 213.072 989.654 218.928 989.654 225.072V321.552C989.654 327.12 990.71 331.44 992.822 334.512C995.126 337.392 997.43 338.928 999.734 339.12L1002.9 339.696H1011.83V342H1002.9ZM928.886 340.848C939.062 340.848 948.182 337.392 956.246 330.48C964.502 323.376 968.918 316.56 969.494 310.032V275.184C964.31 274.8 959.03 274.608 953.654 274.608C948.47 274.608 943.286 274.896 938.102 275.472C923.51 277.2 914.006 280.464 909.59 285.264C905.174 290.064 902.966 296.688 902.966 305.136C902.966 306.672 903.062 308.4 903.254 310.32C904.982 330.672 913.526 340.848 928.886 340.848Z" fill="#3D5361"/>
<path d="M345.455 216H341.999L428.111 14.4L431.279 12.96L503.855 216H479.375L456.911 152.64H372.815L345.455 216ZM419.183 45.504L373.967 149.76H456.047L419.183 45.504Z" fill="#3D5361"/>
<path d="M548.196 182.88C548.196 198.048 552.228 207.744 560.292 211.968C564.132 213.888 569.028 214.848 574.98 214.848C587.076 214.848 597.828 210.24 607.236 201.024C616.836 191.808 622.02 183.264 622.788 175.392V72H642.948V195.552C642.948 201.12 644.004 205.44 646.116 208.512C648.42 211.392 650.724 212.928 653.028 213.12L656.196 213.696H665.124V216H647.556C639.684 216 633.636 214.272 629.412 210.816C625.38 207.36 623.268 203.904 623.076 200.448L622.788 195.552V183.168C619.332 191.424 613.188 199.2 604.356 206.496C595.524 213.6 585.828 217.152 575.268 217.152C564.9 217.152 556.356 216.192 549.636 214.272C543.108 212.16 538.404 209.28 535.524 205.632C530.532 199.68 528.036 192 528.036 182.592V72H548.196V182.88Z" fill="#3D5361"/>
<path d="M674.911 149.184C674.911 124.224 680.959 104.928 693.055 91.296C705.151 77.664 723.295 70.848 747.487 70.848C758.815 70.848 770.239 73.728 781.759 79.488V0.287994H801.919V195.552C801.919 201.12 802.975 205.44 805.087 208.512C807.391 211.392 809.695 212.928 811.999 213.12L815.167 213.696H824.095V216H806.527C798.655 216 792.607 214.272 788.383 210.816C784.351 207.36 782.239 203.904 782.047 200.448L781.759 195.552V190.944C778.111 197.664 772.063 203.616 763.615 208.8C755.167 213.984 745.183 216.576 733.663 216.576C694.495 215.616 674.911 193.152 674.911 149.184ZM733.951 214.272C746.815 214.272 757.855 210.816 767.071 203.904C776.287 196.992 781.183 190.176 781.759 183.456V82.08C768.127 76.128 756.415 73.152 746.623 73.152C729.535 73.152 716.671 79.872 708.031 93.312C699.391 106.56 695.071 125.184 695.071 149.184C695.071 192.576 708.031 214.272 733.951 214.272Z" fill="#3D5361"/>
<path d="M900.419 84.384V78.336C891.779 81.792 883.907 88.8 876.803 99.36C869.699 109.728 865.955 119.52 865.571 128.736V216H845.411V72H865.571V117.792C868.643 106.656 874.499 96.192 883.139 86.4C891.779 76.416 901.571 71.232 912.515 70.848H913.667C917.507 70.848 920.675 72.192 923.171 74.88C925.859 77.376 927.203 80.544 927.203 84.384C927.203 88.224 925.859 91.392 923.171 93.888C920.675 96.384 917.507 97.632 913.667 97.632C909.827 97.632 906.659 96.384 904.163 93.888C901.667 91.392 900.419 88.224 900.419 84.384Z" fill="#3D5361"/>
<path d="M963.776 145.728C963.776 169.536 967.904 187.008 976.16 198.144C984.608 209.28 995.648 214.848 1009.28 214.848C1028.48 214.848 1045.57 211.968 1060.54 206.208L1061.41 208.224C1046.05 214.176 1028.67 217.152 1009.28 217.152C990.08 217.152 974.432 211.392 962.336 199.872C950.24 188.352 944.192 170.592 944.192 146.592C944.192 122.592 950.528 103.968 963.2 90.72C975.872 77.472 992 70.848 1011.58 70.848C1027.33 70.848 1040.58 75.552 1051.33 84.96C1062.08 94.368 1067.46 108.288 1067.46 126.72C1067.46 127.68 1067.46 128.64 1067.46 129.6H964.64C964.064 134.784 963.776 140.16 963.776 145.728ZM1047.87 127.296C1047.68 108.864 1044.13 95.232 1037.22 86.4C1030.3 77.568 1021.38 73.152 1010.43 73.152C999.488 73.152 989.696 77.952 981.056 87.552C972.608 97.152 967.232 110.4 964.928 127.296H1047.87Z" fill="#3D5361"/>
<path d="M1124.52 267.552C1118.38 281.184 1110.79 288 1101.77 288C1097.74 288 1093.03 287.328 1087.66 285.984V283.68C1092.07 284.832 1096.01 285.408 1099.47 285.408C1109.26 285.408 1116.75 279.456 1121.93 267.552L1146.12 216H1145.83L1092.27 72H1112.43L1157.07 192.096L1201.13 100.8C1203.43 96.768 1204.59 91.968 1204.59 86.4C1204.59 80.832 1203.05 76.608 1199.98 73.728L1201.71 72C1202.47 72.384 1203.43 73.536 1204.59 75.456C1205.93 77.376 1206.7 79.104 1206.89 80.64C1207.27 82.176 1207.47 83.616 1207.47 84.96C1207.47 90.144 1206.31 95.424 1204.01 100.8L1148.71 216L1124.52 267.552Z" fill="#3D5361"/>
</svg>
