<svg width="511" height="526" viewBox="0 0 511 526" fill="none" xmlns="http://www.w3.org/2000/svg">
<g opacity="0.1">
<mask id="path-1-outside-1_109_280" maskUnits="userSpaceOnUse" x="-16" y="0" width="87" height="133" fill="black">
<rect fill="white" x="-16" width="87" height="133"/>
<path d="M-14.9168 2.59599C-0.455502 1.59866 12.2605 1.09999 23.2312 1.09999C54.1485 1.09999 69.6072 12.0083 69.6072 33.825C69.6072 43.923 66.9892 52.7743 61.7532 60.379C59.0105 64.493 54.7718 67.7967 49.0372 70.29C43.3025 72.6587 36.3835 73.843 28.2802 73.843H0.604166V132H-14.9168V2.59599ZM23.4182 2.96999C16.1875 2.96999 8.58283 3.40632 0.604166 4.27899V71.973H28.2802C45.8582 71.225 54.6472 58.6337 54.6472 34.199C54.6472 24.2257 52.0292 16.5587 46.7932 11.198C41.5572 5.71266 33.7655 2.96999 23.4182 2.96999Z"/>
</mask>
<path d="M-14.9168 2.59599L-14.9856 1.59836L-15.9168 1.66258V2.59599H-14.9168ZM61.7532 60.379L60.9295 59.8119L60.9253 59.8181L60.9211 59.8243L61.7532 60.379ZM49.0372 70.29L49.4189 71.2143L49.4274 71.2107L49.4359 71.2071L49.0372 70.29ZM0.604166 73.843V72.843H-0.395834V73.843H0.604166ZM0.604166 132V133H1.60417V132H0.604166ZM-14.9168 132H-15.9168V133H-14.9168V132ZM0.604166 4.27899L0.49544 3.28492L-0.395834 3.38241V4.27899H0.604166ZM0.604166 71.973H-0.395834V72.973H0.604166V71.973ZM28.2802 71.973V72.973H28.3014L28.3227 72.9721L28.2802 71.973ZM46.7932 11.198L46.0698 11.8885L46.0778 11.8967L46.7932 11.198ZM-14.848 3.59362C-0.402815 2.5974 12.2894 2.09999 23.2312 2.09999V0.0999908C12.2316 0.0999908 -0.508188 0.599917 -14.9856 1.59836L-14.848 3.59362ZM23.2312 2.09999C38.6027 2.09999 49.9526 4.81721 57.4366 10.0983C64.8568 15.3343 68.6072 23.1844 68.6072 33.825H70.6072C70.6072 22.649 66.6282 14.1365 58.5897 8.46418C50.6151 2.83694 38.777 0.0999908 23.2312 0.0999908V2.09999ZM68.6072 33.825C68.6072 43.7403 66.0399 52.3897 60.9295 59.8119L62.5768 60.9461C67.9384 53.159 70.6072 44.1057 70.6072 33.825H68.6072ZM60.9211 59.8243C58.31 63.7409 54.2432 66.9361 48.6384 69.3729L49.4359 71.2071C55.3004 68.6573 59.711 65.2451 62.5852 60.9337L60.9211 59.8243ZM48.6554 69.3657C43.0727 71.6716 36.2907 72.843 28.2802 72.843V74.843C36.4763 74.843 43.5323 73.6457 49.4189 71.2143L48.6554 69.3657ZM28.2802 72.843H0.604166V74.843H28.2802V72.843ZM-0.395834 73.843V132H1.60417V73.843H-0.395834ZM0.604166 131H-14.9168V133H0.604166V131ZM-13.9168 132V2.59599H-15.9168V132H-13.9168ZM23.4182 1.96999C16.1475 1.96999 8.50634 2.40873 0.49544 3.28492L0.712893 5.27307C8.65932 4.40392 16.2275 3.96999 23.4182 3.96999V1.96999ZM-0.395834 4.27899V71.973H1.60417V4.27899H-0.395834ZM0.604166 72.973H28.2802V70.973H0.604166V72.973ZM28.3227 72.9721C37.3716 72.587 44.2748 69.1318 48.8754 62.5409C53.4378 56.0046 55.6472 46.5096 55.6472 34.199H53.6472C53.6472 46.3231 51.462 55.341 47.2354 61.3961C43.047 67.3965 36.7668 70.611 28.2377 70.9739L28.3227 72.9721ZM55.6472 34.199C55.6472 24.0535 52.981 16.102 47.5085 10.4993L46.0778 11.8967C51.0774 17.0153 53.6472 24.3978 53.6472 34.199H55.6472ZM47.5165 10.5075C42.031 4.76077 33.936 1.96999 23.4182 1.96999V3.96999C33.595 3.96999 41.0833 6.66455 46.0698 11.8885L47.5165 10.5075Z" fill="#3D5361" mask="url(#path-1-outside-1_109_280)"/>
<mask id="path-3-outside-2_109_280" maskUnits="userSpaceOnUse" x="-16" y="197" width="83" height="133" fill="black">
<rect fill="white" x="-16" y="197" width="83" height="133"/>
<path d="M33.1451 329H17.6241V199.97H-14.7269V198.1H65.6831V199.97H33.1451V329Z"/>
</mask>
<path d="M33.1451 329V330H34.1451V329H33.1451ZM17.6241 329H16.6241V330H17.6241V329ZM17.6241 199.97H18.6241V198.97H17.6241V199.97ZM-14.7269 199.97H-15.7269V200.97H-14.7269V199.97ZM-14.7269 198.1V197.1H-15.7269V198.1H-14.7269ZM65.6831 198.1H66.6831V197.1H65.6831V198.1ZM65.6831 199.97V200.97H66.6831V199.97H65.6831ZM33.1451 199.97V198.97H32.1451V199.97H33.1451ZM33.1451 328H17.6241V330H33.1451V328ZM18.6241 329V199.97H16.6241V329H18.6241ZM17.6241 198.97H-14.7269V200.97H17.6241V198.97ZM-13.7269 199.97V198.1H-15.7269V199.97H-13.7269ZM-14.7269 199.1H65.6831V197.1H-14.7269V199.1ZM64.6831 198.1V199.97H66.6831V198.1H64.6831ZM65.6831 198.97H33.1451V200.97H65.6831V198.97ZM32.1451 199.97V329H34.1451V199.97H32.1451Z" fill="#3D5361" mask="url(#path-3-outside-2_109_280)"/>
<mask id="path-5-outside-3_109_280" maskUnits="userSpaceOnUse" x="-8" y="393" width="74" height="133" fill="black">
<rect fill="white" x="-8" y="393" width="74" height="133"/>
<path d="M64.2262 525H-6.83383V394.1H8.68717V523.13H64.2262V525Z"/>
</mask>
<path d="M64.2262 525V526H65.2262V525H64.2262ZM-6.83383 525H-7.83383V526H-6.83383V525ZM-6.83383 394.1V393.1H-7.83383V394.1H-6.83383ZM8.68717 394.1H9.68717V393.1H8.68717V394.1ZM8.68717 523.13H7.68717V524.13H8.68717V523.13ZM64.2262 523.13H65.2262V522.13H64.2262V523.13ZM64.2262 524H-6.83383V526H64.2262V524ZM-5.83383 525V394.1H-7.83383V525H-5.83383ZM-6.83383 395.1H8.68717V393.1H-6.83383V395.1ZM7.68717 394.1V523.13H9.68717V394.1H7.68717ZM8.68717 524.13H64.2262V522.13H8.68717V524.13ZM63.2262 523.13V525H65.2262V523.13H63.2262Z" fill="#3D5361" mask="url(#path-5-outside-3_109_280)"/>
<mask id="path-7-outside-4_109_280" maskUnits="userSpaceOnUse" x="178" y="-1" width="119" height="135" fill="black">
<rect fill="white" x="178" y="-1" width="119" height="135"/>
<path d="M179.556 69.729C179.556 47.0397 185.041 29.8357 196.012 18.117C207.107 6.27366 221.319 0.35199 238.648 0.35199C255.976 0.35199 269.752 5.46332 279.975 15.686C290.322 25.9087 295.496 42.24 295.496 64.68C295.496 87.12 290.01 104.075 279.04 115.544C268.069 127.013 253.421 132.748 235.095 132.748C219.262 132.748 206.297 128.198 196.199 119.097C190.963 114.36 186.849 107.815 183.857 99.462C180.989 90.9847 179.556 81.0737 179.556 69.729ZM238.087 2.222C225.495 2.222 215.148 7.832 207.045 19.052C199.066 30.272 195.077 46.728 195.077 68.42C195.077 90.112 198.879 105.945 206.484 115.918C214.088 125.891 224.186 130.878 236.778 130.878C249.494 130.878 259.841 125.268 267.82 114.048C275.923 102.703 279.975 86.3097 279.975 64.867C279.975 43.2997 276.11 27.467 268.381 17.369C260.776 7.271 250.678 2.222 238.087 2.222Z"/>
</mask>
<path d="M196.012 18.117L195.282 17.4333L195.282 17.4336L196.012 18.117ZM279.975 15.686L279.267 16.3931L279.272 16.3974L279.975 15.686ZM279.04 115.544L278.317 114.853L279.04 115.544ZM196.199 119.097L195.528 119.839L195.529 119.84L196.199 119.097ZM183.857 99.462L182.909 99.7824L182.912 99.7908L182.915 99.7992L183.857 99.462ZM207.045 19.052L206.234 18.4665L206.23 18.4725L207.045 19.052ZM206.484 115.918L205.688 116.524L206.484 115.918ZM267.82 114.048L267.006 113.467L267.005 113.468L267.82 114.048ZM268.381 17.369L267.582 17.9706L267.586 17.9768L268.381 17.369ZM180.556 69.729C180.556 47.1884 186.005 30.2692 196.742 18.8004L195.282 17.4336C184.077 29.4021 178.556 46.8909 178.556 69.729H180.556ZM196.741 18.8007C207.634 7.17397 221.574 1.35199 238.648 1.35199V-0.64801C221.063 -0.64801 206.58 5.37335 195.282 17.4333L196.741 18.8007ZM238.648 1.35199C255.767 1.35199 269.269 6.39441 279.267 16.3931L280.682 14.9789C270.235 4.53224 256.185 -0.64801 238.648 -0.64801V1.35199ZM279.272 16.3974C289.347 26.3516 294.496 42.3653 294.496 64.68H296.496C296.496 42.1147 291.296 25.4657 280.677 14.9746L279.272 16.3974ZM294.496 64.68C294.496 86.9695 289.047 103.635 278.317 114.853L279.762 116.235C290.973 104.515 296.496 87.2705 296.496 64.68H294.496ZM278.317 114.853C267.565 126.094 253.194 131.748 235.095 131.748V133.748C253.647 133.748 268.573 127.933 279.762 116.235L278.317 114.853ZM235.095 131.748C219.466 131.748 206.753 127.262 196.868 118.354L195.529 119.84C205.841 129.133 219.058 133.748 235.095 133.748V131.748ZM196.869 118.355C191.783 113.753 187.748 107.361 184.798 99.1248L182.915 99.7992C185.949 108.268 190.142 114.966 195.528 119.839L196.869 118.355ZM184.804 99.1416C181.979 90.7909 180.556 80.9925 180.556 69.729H178.556C178.556 81.1548 179.999 91.1785 182.909 99.7824L184.804 99.1416ZM238.087 1.222C225.139 1.222 214.504 7.01621 206.234 18.4665L207.855 19.6375C215.792 8.64779 225.852 3.222 238.087 3.222V1.222ZM206.23 18.4725C198.079 29.9339 194.077 46.631 194.077 68.42H196.077C196.077 46.825 200.053 30.6101 207.86 19.6315L206.23 18.4725ZM194.077 68.42C194.077 90.1877 197.884 106.29 205.688 116.524L207.279 115.312C199.873 105.6 196.077 90.0363 196.077 68.42H194.077ZM205.688 116.524C213.483 126.747 223.876 131.878 236.778 131.878V129.878C224.497 129.878 214.693 125.036 207.279 115.312L205.688 116.524ZM236.778 131.878C249.847 131.878 260.486 126.086 268.635 114.628L267.005 113.468C259.195 124.45 249.14 129.878 236.778 129.878V131.878ZM268.633 114.629C276.907 103.046 280.975 86.4131 280.975 64.867H278.975C278.975 86.2062 274.939 102.361 267.006 113.467L268.633 114.629ZM280.975 64.867C280.975 43.2184 277.102 27.1185 269.175 16.7612L267.586 17.9768C275.117 27.8155 278.975 43.3809 278.975 64.867H280.975ZM269.179 16.7674C261.387 6.41972 250.993 1.222 238.087 1.222V3.222C250.362 3.222 260.165 8.12228 267.582 17.9706L269.179 16.7674Z" fill="#3D5361" mask="url(#path-7-outside-4_109_280)"/>
<mask id="path-9-outside-5_109_280" maskUnits="userSpaceOnUse" x="202" y="197" width="77" height="133" fill="black">
<rect fill="white" x="202" y="197" width="77" height="133"/>
<path d="M277.992 198.1V199.97H219.087V259.81H273.691V261.68H219.087V329H203.566V198.1H277.992Z"/>
</mask>
<path d="M277.992 198.1H278.992V197.1H277.992V198.1ZM277.992 199.97V200.97H278.992V199.97H277.992ZM219.087 199.97V198.97H218.087V199.97H219.087ZM219.087 259.81H218.087V260.81H219.087V259.81ZM273.691 259.81H274.691V258.81H273.691V259.81ZM273.691 261.68V262.68H274.691V261.68H273.691ZM219.087 261.68V260.68H218.087V261.68H219.087ZM219.087 329V330H220.087V329H219.087ZM203.566 329H202.566V330H203.566V329ZM203.566 198.1V197.1H202.566V198.1H203.566ZM276.992 198.1V199.97H278.992V198.1H276.992ZM277.992 198.97H219.087V200.97H277.992V198.97ZM218.087 199.97V259.81H220.087V199.97H218.087ZM219.087 260.81H273.691V258.81H219.087V260.81ZM272.691 259.81V261.68H274.691V259.81H272.691ZM273.691 260.68H219.087V262.68H273.691V260.68ZM218.087 261.68V329H220.087V261.68H218.087ZM219.087 328H203.566V330H219.087V328ZM204.566 329V198.1H202.566V329H204.566ZM203.566 199.1H277.992V197.1H203.566V199.1Z" fill="#3D5361" mask="url(#path-9-outside-5_109_280)"/>
<mask id="path-11-outside-6_109_280" maskUnits="userSpaceOnUse" x="219" y="393" width="37" height="133" fill="black">
<rect fill="white" x="219" y="393" width="37" height="133"/>
<path d="M220.823 395.97V394.1H254.109V395.97H244.946V523.13H254.109V525H220.823V523.13H229.425V395.97H220.823Z"/>
</mask>
<path d="M220.823 395.97H219.823V396.97H220.823V395.97ZM220.823 394.1V393.1H219.823V394.1H220.823ZM254.109 394.1H255.109V393.1H254.109V394.1ZM254.109 395.97V396.97H255.109V395.97H254.109ZM244.946 395.97V394.97H243.946V395.97H244.946ZM244.946 523.13H243.946V524.13H244.946V523.13ZM254.109 523.13H255.109V522.13H254.109V523.13ZM254.109 525V526H255.109V525H254.109ZM220.823 525H219.823V526H220.823V525ZM220.823 523.13V522.13H219.823V523.13H220.823ZM229.425 523.13V524.13H230.425V523.13H229.425ZM229.425 395.97H230.425V394.97H229.425V395.97ZM221.823 395.97V394.1H219.823V395.97H221.823ZM220.823 395.1H254.109V393.1H220.823V395.1ZM253.109 394.1V395.97H255.109V394.1H253.109ZM254.109 394.97H244.946V396.97H254.109V394.97ZM243.946 395.97V523.13H245.946V395.97H243.946ZM244.946 524.13H254.109V522.13H244.946V524.13ZM253.109 523.13V525H255.109V523.13H253.109ZM254.109 524H220.823V526H254.109V524ZM221.823 525V523.13H219.823V525H221.823ZM220.823 524.13H229.425V522.13H220.823V524.13ZM230.425 523.13V395.97H228.425V523.13H230.425ZM229.425 394.97H220.823V396.97H229.425V394.97Z" fill="#3D5361" mask="url(#path-11-outside-6_109_280)"/>
<mask id="path-13-outside-7_109_280" maskUnits="userSpaceOnUse" x="407" y="0" width="97" height="133" fill="black">
<rect fill="white" x="407" width="97" height="133"/>
<path d="M408.435 2.59599C422.897 1.59866 435.675 1.09999 446.77 1.09999C477.563 1.09999 492.959 11.385 492.959 31.955C492.959 40.6817 490.84 48.4733 486.601 55.33C482.363 62.1867 475.07 66.737 464.722 68.981L502.122 132H484.731L448.079 70.103H423.956V132H408.435V2.59599ZM446.77 2.96999C439.54 2.96999 431.935 3.40632 423.956 4.27899V68.233H451.632C469.21 67.485 477.999 55.517 477.999 32.329C477.999 22.8543 475.381 15.6237 470.145 10.637C464.909 5.52566 457.118 2.96999 446.77 2.96999Z"/>
</mask>
<path d="M408.435 2.59599L408.366 1.59836L407.435 1.66258V2.59599H408.435ZM486.601 55.33L487.452 55.8558L486.601 55.33ZM464.722 68.981L464.51 68.0037L463.154 68.2979L463.862 69.4914L464.722 68.981ZM502.122 132V133H503.879L502.982 131.49L502.122 132ZM484.731 132L483.871 132.51L484.161 133H484.731V132ZM448.079 70.103L448.94 69.5935L448.649 69.103H448.079V70.103ZM423.956 70.103V69.103H422.956V70.103H423.956ZM423.956 132V133H424.956V132H423.956ZM408.435 132H407.435V133H408.435V132ZM423.956 4.27899L423.847 3.28492L422.956 3.38241V4.27899H423.956ZM423.956 68.233H422.956V69.233H423.956V68.233ZM451.632 68.233V69.233H451.653L451.675 69.2321L451.632 68.233ZM470.145 10.637L469.447 11.3526L469.456 11.3611L470.145 10.637ZM408.504 3.59362C422.949 2.59742 435.704 2.09999 446.77 2.09999V0.0999908C435.646 0.0999908 422.844 0.599897 408.366 1.59836L408.504 3.59362ZM446.77 2.09999C462.087 2.09999 473.399 4.66365 480.856 9.64527C488.243 14.5793 491.959 21.9604 491.959 31.955H493.959C493.959 21.3796 489.978 13.3332 481.967 7.98221C474.028 2.67883 462.246 0.0999908 446.77 0.0999908V2.09999ZM491.959 31.955C491.959 40.5118 489.884 48.1185 485.751 54.8042L487.452 55.8558C491.796 48.8281 493.959 40.8515 493.959 31.955H491.959ZM485.751 54.8042C481.696 61.3639 474.679 65.7984 464.51 68.0037L464.934 69.9583C475.46 67.6756 483.03 63.0095 487.452 55.8558L485.751 54.8042ZM463.862 69.4914L501.262 132.51L502.982 131.49L465.582 68.4706L463.862 69.4914ZM502.122 131H484.731V133H502.122V131ZM485.592 131.49L448.94 69.5935L447.219 70.6125L483.871 132.51L485.592 131.49ZM448.079 69.103H423.956V71.103H448.079V69.103ZM422.956 70.103V132H424.956V70.103H422.956ZM423.956 131H408.435V133H423.956V131ZM409.435 132V2.59599H407.435V132H409.435ZM446.77 1.96999C439.5 1.96999 431.858 2.40873 423.847 3.28492L424.065 5.27307C432.011 4.40392 439.58 3.96999 446.77 3.96999V1.96999ZM422.956 4.27899V68.233H424.956V4.27899H422.956ZM423.956 69.233H451.632V67.233H423.956V69.233ZM451.675 69.2321C460.704 68.8479 467.605 65.5627 472.213 59.2879C476.787 53.0601 478.999 44.0243 478.999 32.329H476.999C476.999 43.8216 474.817 52.3639 470.601 58.1041C466.421 63.7973 460.138 66.8701 451.59 67.2339L451.675 69.2321ZM478.999 32.329C478.999 22.6696 476.325 15.1419 470.835 9.91285L469.456 11.3611C474.437 16.1054 476.999 23.039 476.999 32.329H478.999ZM470.844 9.92142C465.355 4.56367 457.27 1.96999 446.77 1.96999V3.96999C456.965 3.96999 464.463 6.48765 469.447 11.3526L470.844 9.92142Z" fill="#3D5361" mask="url(#path-13-outside-7_109_280)"/>
<mask id="path-15-outside-8_109_280" maskUnits="userSpaceOnUse" x="393" y="189" width="118" height="135" fill="black">
<rect fill="white" x="393" y="189" width="118" height="135"/>
<path d="M394.056 259.729C394.056 237.04 399.541 219.836 410.512 208.117C421.607 196.274 435.819 190.352 453.148 190.352C470.476 190.352 484.252 195.463 494.475 205.686C504.822 215.909 509.996 232.24 509.996 254.68C509.996 277.12 504.51 294.075 493.54 305.544C482.569 317.013 467.921 322.748 449.595 322.748C433.762 322.748 420.797 318.198 410.699 309.097C405.463 304.36 401.349 297.815 398.357 289.462C395.489 280.985 394.056 271.074 394.056 259.729ZM452.587 192.222C439.995 192.222 429.648 197.832 421.545 209.052C413.566 220.272 409.577 236.728 409.577 258.42C409.577 280.112 413.379 295.945 420.984 305.918C428.588 315.891 438.686 320.878 451.278 320.878C463.994 320.878 474.341 315.268 482.32 304.048C490.423 292.703 494.475 276.31 494.475 254.867C494.475 233.3 490.61 217.467 482.881 207.369C475.276 197.271 465.178 192.222 452.587 192.222Z"/>
</mask>
<path d="M410.512 208.117L409.782 207.433L409.782 207.434L410.512 208.117ZM494.475 205.686L493.767 206.393L493.772 206.397L494.475 205.686ZM493.54 305.544L492.817 304.853L493.54 305.544ZM410.699 309.097L410.028 309.839L410.029 309.84L410.699 309.097ZM398.357 289.462L397.409 289.782L397.412 289.791L397.415 289.799L398.357 289.462ZM421.545 209.052L420.734 208.466L420.73 208.472L421.545 209.052ZM420.984 305.918L420.188 306.524L420.984 305.918ZM482.32 304.048L481.506 303.467L481.505 303.468L482.32 304.048ZM482.881 207.369L482.082 207.971L482.086 207.977L482.881 207.369ZM395.056 259.729C395.056 237.188 400.505 220.269 411.242 208.8L409.782 207.434C398.577 219.402 393.056 236.891 393.056 259.729H395.056ZM411.241 208.801C422.134 197.174 436.074 191.352 453.148 191.352V189.352C435.563 189.352 421.08 195.373 409.782 207.433L411.241 208.801ZM453.148 191.352C470.267 191.352 483.769 196.394 493.767 206.393L495.182 204.979C484.735 194.532 470.685 189.352 453.148 189.352V191.352ZM493.772 206.397C503.847 216.352 508.996 232.365 508.996 254.68H510.996C510.996 232.115 505.796 215.466 495.177 204.975L493.772 206.397ZM508.996 254.68C508.996 276.97 503.547 293.635 492.817 304.853L494.262 306.235C505.473 294.515 510.996 277.27 510.996 254.68H508.996ZM492.817 304.853C482.065 316.094 467.694 321.748 449.595 321.748V323.748C468.147 323.748 483.073 317.933 494.262 306.235L492.817 304.853ZM449.595 321.748C433.966 321.748 421.253 317.262 411.368 308.354L410.029 309.84C420.341 319.133 433.558 323.748 449.595 323.748V321.748ZM411.369 308.355C406.283 303.753 402.248 297.361 399.298 289.125L397.415 289.799C400.449 298.268 404.642 304.966 410.028 309.839L411.369 308.355ZM399.304 289.142C396.479 280.791 395.056 270.992 395.056 259.729H393.056C393.056 271.155 394.499 281.178 397.409 289.782L399.304 289.142ZM452.587 191.222C439.639 191.222 429.004 197.016 420.734 208.467L422.355 209.637C430.292 198.648 440.352 193.222 452.587 193.222V191.222ZM420.73 208.472C412.579 219.934 408.577 236.631 408.577 258.42H410.577C410.577 236.825 414.553 220.61 422.36 209.632L420.73 208.472ZM408.577 258.42C408.577 280.188 412.384 296.29 420.188 306.524L421.779 305.312C414.373 295.6 410.577 280.036 410.577 258.42H408.577ZM420.188 306.524C427.983 316.747 438.376 321.878 451.278 321.878V319.878C438.997 319.878 429.193 315.036 421.779 305.312L420.188 306.524ZM451.278 321.878C464.347 321.878 474.986 316.086 483.135 304.628L481.505 303.468C473.695 314.45 463.64 319.878 451.278 319.878V321.878ZM483.133 304.629C491.407 293.046 495.475 276.413 495.475 254.867H493.475C493.475 276.206 489.439 292.361 481.506 303.467L483.133 304.629ZM495.475 254.867C495.475 233.218 491.602 217.119 483.675 206.761L482.086 207.977C489.617 217.815 493.475 233.381 493.475 254.867H495.475ZM483.679 206.767C475.887 196.42 465.493 191.222 452.587 191.222V193.222C464.862 193.222 474.665 198.122 482.082 207.971L483.679 206.767Z" fill="#3D5361" mask="url(#path-15-outside-8_109_280)"/>
<mask id="path-17-outside-9_109_280" maskUnits="userSpaceOnUse" x="393" y="392" width="118" height="135" fill="black">
<rect fill="white" x="393" y="392" width="118" height="135"/>
<path d="M394.056 462.729C394.056 440.04 399.541 422.836 410.512 411.117C421.607 399.274 435.819 393.352 453.148 393.352C470.476 393.352 484.252 398.463 494.475 408.686C504.822 418.909 509.996 435.24 509.996 457.68C509.996 480.12 504.51 497.075 493.54 508.544C482.569 520.013 467.921 525.748 449.595 525.748C433.762 525.748 420.797 521.198 410.699 512.097C405.463 507.36 401.349 500.815 398.357 492.462C395.489 483.985 394.056 474.074 394.056 462.729ZM452.587 395.222C439.995 395.222 429.648 400.832 421.545 412.052C413.566 423.272 409.577 439.728 409.577 461.42C409.577 483.112 413.379 498.945 420.984 508.918C428.588 518.891 438.686 523.878 451.278 523.878C463.994 523.878 474.341 518.268 482.32 507.048C490.423 495.703 494.475 479.31 494.475 457.867C494.475 436.3 490.61 420.467 482.881 410.369C475.276 400.271 465.178 395.222 452.587 395.222Z"/>
</mask>
<path d="M410.512 411.117L409.782 410.433L409.782 410.434L410.512 411.117ZM494.475 408.686L493.767 409.393L493.772 409.397L494.475 408.686ZM493.54 508.544L492.817 507.853L493.54 508.544ZM410.699 512.097L410.028 512.839L410.029 512.84L410.699 512.097ZM398.357 492.462L397.409 492.782L397.412 492.791L397.415 492.799L398.357 492.462ZM421.545 412.052L420.734 411.466L420.73 411.472L421.545 412.052ZM420.984 508.918L420.188 509.524L420.984 508.918ZM482.32 507.048L481.506 506.467L481.505 506.468L482.32 507.048ZM482.881 410.369L482.082 410.971L482.086 410.977L482.881 410.369ZM395.056 462.729C395.056 440.188 400.505 423.269 411.242 411.8L409.782 410.434C398.577 422.402 393.056 439.891 393.056 462.729H395.056ZM411.241 411.801C422.134 400.174 436.074 394.352 453.148 394.352V392.352C435.563 392.352 421.08 398.373 409.782 410.433L411.241 411.801ZM453.148 394.352C470.267 394.352 483.769 399.394 493.767 409.393L495.182 407.979C484.735 397.532 470.685 392.352 453.148 392.352V394.352ZM493.772 409.397C503.847 419.352 508.996 435.365 508.996 457.68H510.996C510.996 435.115 505.796 418.466 495.177 407.975L493.772 409.397ZM508.996 457.68C508.996 479.97 503.547 496.635 492.817 507.853L494.262 509.235C505.473 497.515 510.996 480.27 510.996 457.68H508.996ZM492.817 507.853C482.065 519.094 467.694 524.748 449.595 524.748V526.748C468.147 526.748 483.073 520.933 494.262 509.235L492.817 507.853ZM449.595 524.748C433.966 524.748 421.253 520.262 411.368 511.354L410.029 512.84C420.341 522.133 433.558 526.748 449.595 526.748V524.748ZM411.369 511.355C406.283 506.753 402.248 500.361 399.298 492.125L397.415 492.799C400.449 501.268 404.642 507.966 410.028 512.839L411.369 511.355ZM399.304 492.142C396.479 483.791 395.056 473.992 395.056 462.729H393.056C393.056 474.155 394.499 484.178 397.409 492.782L399.304 492.142ZM452.587 394.222C439.639 394.222 429.004 400.016 420.734 411.467L422.355 412.637C430.292 401.648 440.352 396.222 452.587 396.222V394.222ZM420.73 411.472C412.579 422.934 408.577 439.631 408.577 461.42H410.577C410.577 439.825 414.553 423.61 422.36 412.632L420.73 411.472ZM408.577 461.42C408.577 483.188 412.384 499.29 420.188 509.524L421.779 508.312C414.373 498.6 410.577 483.036 410.577 461.42H408.577ZM420.188 509.524C427.983 519.747 438.376 524.878 451.278 524.878V522.878C438.997 522.878 429.193 518.036 421.779 508.312L420.188 509.524ZM451.278 524.878C464.347 524.878 474.986 519.086 483.135 507.628L481.505 506.468C473.695 517.45 463.64 522.878 451.278 522.878V524.878ZM483.133 507.629C491.407 496.046 495.475 479.413 495.475 457.867H493.475C493.475 479.206 489.439 495.361 481.506 506.467L483.133 507.629ZM495.475 457.867C495.475 436.218 491.602 420.119 483.675 409.761L482.086 410.977C489.617 420.815 493.475 436.381 493.475 457.867H495.475ZM483.679 409.767C475.887 399.42 465.493 394.222 452.587 394.222V396.222C464.862 396.222 474.665 401.122 482.082 410.971L483.679 409.767Z" fill="#3D5361" mask="url(#path-17-outside-9_109_280)"/>
</g>
</svg>
